<svg version="1.2" xmlns="http://www.w3.org/2000/svg" viewBox="0 0 3063 3063" width="100" height="100">
	<title>logoMockupwithbluepurplenoedgeswithsvgs</title>
	<style>
	.s0 { fill: #FFFFFF } /* Black */
	.s1 { fill: #000000 } /* White */
	</style>

	<g id="Background copy 11">
		<path id="Path 0" class="s0" d="m1455.5 539.1c-5.5 1-12.9 1.8-16.5 1.8-3.6 0-11.9 0.7-18.5 1.5-6.6 0.9-22.3 2.9-35 4.6-12.7 1.7-36.3 5.7-52.5 8.9-16.2 3.3-39.6 8.5-52 11.6-12.4 3.1-26.5 6.9-31.5 8.5-5 1.5-15.3 4.7-23 7-7.7 2.3-19.8 6.4-27 9.1-7.2 2.7-18 6.8-24 9.1-6 2.2-17.3 6.6-25 9.6-7.7 3-19.3 8.1-25.8 11.3-6.4 3.3-15.6 7.5-20.4 9.5-4.9 2-14.6 6.6-21.8 10.1-7.2 3.6-18.4 9.6-25 13.3-6.6 3.7-19.9 11.2-29.5 16.6-9.6 5.4-30.8 18.7-47 29.4-16.2 10.8-36.8 25.1-45.8 31.8-8.9 6.7-20.8 16-26.5 20.6-5.6 4.6-14.6 12.2-19.9 16.8-5.4 4.5-13.7 11.7-18.5 15.8-4.8 4.1-24.8 23.4-44.3 43-19.5 19.5-39.3 39.9-44 45.3-4.7 5.4-16.1 19.1-25.3 30.5-9.2 11.4-23.7 30.4-32.1 42.2-8.4 11.8-19.4 27.6-24.3 35-4.9 7.4-13.6 21.1-19.3 30.5-5.6 9.3-14.5 24.3-19.6 33.2-5.2 9-14.6 26.6-20.9 39.3-6.3 12.7-13.1 26.9-15.1 31.7-2 4.9-4.9 11.3-6.4 14.3-1.5 3-6 13.6-10 23.5-4 9.9-9.4 24.1-12 31.5-2.7 7.4-7.1 20-10 28-2.8 8-7.3 22.2-10 31.5-2.7 9.3-7.3 26.9-10.4 39-3 12.1-7.7 33.5-10.5 47.5-2.8 14-5.9 31.1-7 38-1.1 6.9-2.7 18.1-3.6 25-0.9 6.9-2.3 17.2-3.1 23-0.8 5.8-1.4 12.7-1.4 15.5 0 2.7-0.9 10.2-2 16.5-1.9 10.8-2 15.9-2 80 0 64 0.2 69.3 2 80 1.1 6.3 2 13.7 2 16.5 0 2.7 0.7 9.7 1.5 15.5 0.8 5.8 2.4 17.5 3.5 26 1.1 8.5 2.7 19.8 3.6 25 0.8 5.2 3.8 21 6.5 35 2.8 14 6.9 32.7 9.1 41.5 2.2 8.8 7.6 28.6 12 44 4.4 15.4 10.9 35.9 14.4 45.5 3.5 9.6 8.5 23.1 11 30 2.6 6.9 7.3 18.6 10.4 26 3.2 7.4 8.5 19.6 11.7 27 3.3 7.4 10.1 21.6 15 31.5 5 9.9 11.2 21.6 13.8 26 2.6 4.4 6.1 10.7 7.7 14 1.7 3.3 8.6 15.2 15.4 26.5 6.7 11.3 18.5 29.6 26.1 40.7 7.6 11.2 18.4 26.9 24 35 5.6 8.2 18.5 25.1 28.7 37.8 10.3 12.7 22.6 27.5 27.4 33 4.8 5.5 23.3 24.6 41.2 42.5 17.9 17.9 37.6 37 43.8 42.5 6.2 5.5 15.7 13.7 21 18.3 5.3 4.5 15.1 12.7 21.7 18 6.6 5.4 17.4 13.9 24 18.9 6.6 4.9 26.2 18.4 43.6 29.9 17.3 11.5 39.1 25.3 48.5 30.7 9.3 5.5 22.1 12.8 28.4 16.3 6.3 3.5 17.7 9.6 25.2 13.4 7.6 3.9 17.7 8.6 22.5 10.6 4.9 2 12.2 5.3 16.3 7.4 4.1 2.1 14.9 6.9 24 10.8 9.1 3.9 21.7 8.8 28 11 6.3 2.2 18 6.6 26 9.7 8 3.2 18.3 6.9 23 8.2 4.7 1.3 14.6 4.4 22 6.8 7.4 2.4 26.1 7.5 41.5 11.3 15.4 3.9 38.6 9 51.5 11.5 12.9 2.5 32.5 5.9 43.5 7.6 11 1.7 25 3.6 31 4.1 6 0.6 13.7 1.4 17 2 3.3 0.5 8.9 1 12.5 1 3.6 0 11.5 0.9 17.5 2 10.3 1.9 15.2 2 73 2 57.5 0 62.8-0.1 73.5-2 6.3-1.1 14.4-2 18-2 3.6 0 9.2-0.5 12.5-1 3.3-0.6 11-1.4 17-2 6-0.5 20-2.4 31-4.1 11-1.7 31.5-5.4 45.5-8.1 14-2.7 37.2-7.9 51.5-11.4 14.3-3.6 32.8-8.7 41-11.4 8.2-2.6 19-6 24-7.5 5-1.5 14.6-5 21.5-7.7 6.9-2.8 17.7-6.8 24-9 6.3-2.2 19.4-7.4 29-11.5 9.6-4.1 20.4-9 24-10.8 3.6-1.8 11-5.2 16.5-7.5 5.5-2.3 14.7-6.6 20.5-9.5 5.8-2.9 14.1-7.4 18.5-10 4.4-2.6 10.7-6.1 14-7.7 3.3-1.7 15.5-8.7 27-15.6 11.6-6.9 32.5-20.2 46.5-29.5 14-9.4 30.4-20.9 36.5-25.7 6.1-4.7 17.3-13.5 25-19.3 7.7-5.9 19.1-15.1 25.2-20.5 6.2-5.3 16.1-14 22-19.2 6-5.1 23.8-22.2 39.7-38 15.8-15.7 33.2-33.6 38.5-39.8 5.3-6.2 13.1-15.4 17.4-20.5 4.3-5 13.1-15.7 19.5-23.7 6.5-8 14.3-18.1 17.5-22.5 3.1-4.4 8.8-12.5 12.7-18 3.8-5.5 12.7-18.6 19.8-29 7.1-10.4 18.5-28.4 25.4-40 6.9-11.5 13.9-23.7 15.6-27 1.6-3.3 5.1-9.6 7.7-14 2.6-4.4 8.5-15.4 13-24.5 4.6-9.1 10.3-21.2 12.8-27 2.5-5.8 6.2-14.1 8.2-18.5 2-4.4 6.8-15.8 10.6-25.3 3.8-9.4 8.7-22.3 10.8-28.5 2.2-6.1 5.6-15.5 7.6-20.7 2-5.2 7.2-21.9 11.5-37 4.3-15.1 9.9-35.6 12.4-45.5 2.4-9.9 6.9-30.6 10-46 3-15.4 6.9-37.7 8.5-49.5 1.6-11.8 3.7-26.9 4.5-33.5 0.9-6.6 1.6-14 1.6-16.5 0-2.5 0.9-9.5 2-15.5 1.9-10.3 2-15.2 2-79.5 0-64.3-0.1-69.2-2-79.5-1.1-6-2-13.1-2-15.8 0-2.6-0.7-9.5-1.5-15.5-0.8-5.9-2.4-17.9-3.5-26.7-1.2-8.8-3-21.4-4.1-28-1.1-6.6-4.3-23-7-36.5-2.7-13.5-8.1-36.7-11.9-51.5-3.8-14.8-8.8-33.1-11-40.5-2.3-7.4-5.7-18-7.6-23.5-2-5.5-5.8-16.1-8.4-23.5-2.6-7.4-8.5-22.7-13-34-4.5-11.3-10.2-24.3-12.5-29-2.3-4.7-5.9-12.4-7.9-17.3-2-4.8-7.7-16.9-12.7-27-5.1-10-12.8-24.5-17.2-32.2-4.4-7.7-12.3-21.2-17.5-30-5.3-8.8-15.9-25.5-23.5-37-7.7-11.5-19.6-28.9-26.5-38.5-6.9-9.6-16.6-22.7-21.7-29-5.1-6.3-13.8-16.9-19.4-23.5-5.6-6.6-14.4-17-19.6-23-5.1-6-23.6-25.2-41.2-42.5-17.5-17.4-35.8-34.9-40.6-39-4.8-4.1-14.7-12.6-22-18.8-7.3-6.3-17.7-14.8-23.2-19-5.5-4.2-13.8-10.8-18.5-14.5-4.7-3.8-24.5-17.6-44-30.6-19.5-13-43.4-28.1-53-33.5-9.6-5.5-22.9-12.9-29.5-16.6-6.6-3.8-17.8-9.7-25-13.2-7.2-3.6-14.6-7-16.5-7.8-1.9-0.7-12.3-5.5-23-10.6-11.8-5.6-34.2-14.7-57-23.2-20.6-7.7-41.8-15.2-47-16.7-5.2-1.5-14.2-4.2-20-6-5.8-1.9-20.4-5.8-32.5-8.9-12.1-3-33.3-7.8-47-10.6-13.8-2.8-31.8-6.1-40-7.4-8.3-1.4-21.1-3.2-28.5-4.1-7.4-0.9-18.7-2.3-25-3.1-6.3-0.8-14.2-1.4-17.5-1.4-3.3 0-11.2-0.9-17.5-2-10.7-1.8-15.7-2-75-1.9-57.1 0.1-64.5 0.3-73.5 2z"/>
		<path id="Path 1" class="s1" d="m1465.5 622.6c-3.3 0.8-14.8 1.8-25.5 2.3-12 0.5-25.6 1.9-35.5 3.5-8.8 1.4-20 3.2-25 3.9-5 0.8-20 4-33.5 7.1-13.5 3.1-31.3 7.3-39.5 9.2-8.3 2-24.9 6.5-37 10-12.5 3.5-36 11.5-54.5 18.4-17.9 6.7-38.7 14.9-46.3 18.1-7.5 3.2-28 13-45.5 21.8-17.4 8.7-37.8 19.3-45.2 23.6-7.4 4.2-19.9 11.8-27.8 16.9-7.9 5-18.9 12.1-24.5 15.9-5.6 3.7-16.8 11.3-24.8 17-8 5.6-24.7 18.3-37 28.1-12.3 9.9-26 21.2-30.4 25.1-4.4 3.9-10.5 9-13.5 11.5-3 2.4-16.9 15.6-30.8 29.4-14 13.8-28.3 28.7-32 33.1-3.6 4.4-9.8 11.4-13.6 15.5-3.8 4.1-14.3 16.7-23.3 28-9 11.3-19.2 24.5-22.6 29.4-3.4 4.9-10.2 14.6-15.1 21.5-5 6.9-14.5 21.4-21.1 32.1-6.7 10.7-16.6 27-21.9 36.2-5.3 9.3-16.1 29.8-24.1 45.8-8 16-17.2 35.4-20.6 43.2-3.4 7.9-9.6 23.1-13.9 33.8-4.3 10.7-10.3 27.2-13.3 36.5-3.1 9.3-8.6 27.6-12.2 40.5-3.7 12.9-7.8 28.5-9.1 34.5-1.4 6-3.6 15.3-4.9 20.5-1.3 5.2-4.6 23-7.4 39.5-2.7 16.5-5.5 34.5-6.1 40-0.6 5.5-1.5 12.7-2 16-0.5 3.3-1 9-1 12.7 0 3.8-0.9 11.3-2 16.8-1.9 9.3-2 14-2 71.5 0 57.5 0.1 62.2 2 71.5 1.1 5.5 2 13 2 16.7 0 3.8 0.5 9.5 1 12.8 0.5 3.3 1.4 10.5 2 16 0.6 5.5 3.4 23.5 6.1 40 3.5 20.7 7.3 39.3 12.5 60 4.1 16.5 9.6 36.7 12.1 45 2.4 8.2 6.7 22.2 9.5 31 2.8 8.8 8.5 24.8 12.8 35.5 4.3 10.7 10.5 25.9 13.9 33.7 3.4 7.9 12.6 27.3 20.6 43.3 8 16 18.8 36.5 24.1 45.7 5.3 9.3 15.2 25.6 21.9 36.3 6.6 10.7 16.1 25.2 21.1 32.1 4.9 6.9 11.7 16.6 15.1 21.5 3.4 4.9 13.5 18.1 22.5 29.4 9 11.3 20.2 24.6 24.9 29.5 4.7 4.9 11.5 12.6 15.1 17 3.6 4.4 16.2 17.5 28 29.1 11.7 11.6 24.7 23.9 28.9 27.5 4.2 3.5 11.4 9.8 16 14 4.6 4.1 19.4 16.3 32.9 27 13.5 10.8 31.5 24.3 40 30.1 8.5 5.7 18.9 12.8 23 15.5 4.1 2.8 13.3 8.9 20.5 13.5 7.2 4.6 19.8 12.3 28 17 8.3 4.7 29.1 15.6 46.3 24.2 17.1 8.6 37.4 18.3 45 21.5 7.5 3.2 28.1 11.3 45.7 17.9 17.6 6.6 40.5 14.5 51 17.5 10.5 3.1 26.2 7.4 35 9.6 8.8 2.2 25.2 6 36.5 8.5 11.3 2.5 28.4 5.9 38 7.6 9.6 1.7 19.3 3.5 21.5 4 2.2 0.5 9.4 1.4 16 1.9 6.6 0.6 14.7 1.5 18 2.1 3.3 0.5 9.7 1 14.3 1 4.5 0 12.7 0.9 18.2 2 9.3 1.9 14 2 68.5 2 54.5 0 59.2-0.1 68.5-2 5.5-1.1 13.7-2 18.3-2 4.5 0 10.9-0.5 14.2-1 3.3-0.5 10.5-1.4 16-2 5.5-0.6 20.3-2.8 33-5 12.7-2.1 32.5-5.9 44-8.5 11.5-2.5 28.2-6.4 37-8.6 8.8-2.2 23-6 31.5-8.5 8.5-2.4 21.6-6.7 29-9.4 7.4-2.8 23.2-8.5 35-12.9 11.8-4.3 27.9-10.6 35.8-14 7.8-3.4 28.3-13.1 45.5-21.7 17.1-8.6 38-19.5 46.2-24.2 8.3-4.7 20.8-12.4 28-17 7.2-4.6 16.4-10.7 20.5-13.5 4.1-2.7 14.5-9.8 23-15.5 8.5-5.8 26.5-19.3 40-30.1 13.5-10.7 28.3-22.9 32.9-27 4.6-4.2 11.8-10.5 16-14 4.2-3.6 17.2-15.9 28.9-27.5 11.8-11.6 24.4-24.7 28-29.1 3.6-4.4 9.3-10.9 12.7-14.5 3.3-3.6 10.5-11.9 16-18.5 5.5-6.6 14.5-17.8 20-24.8 5.5-7.1 12.4-16.3 15.4-20.5 3-4.3 9.6-13.5 14.6-20.7 5.1-7.2 14.4-21.3 20.7-31.5 6.3-10.2 15.9-26 21.2-35.3 5.3-9.2 16.1-29.7 24.1-45.7 8-16 17.2-35.4 20.6-43.3 3.4-7.8 9.6-23 13.9-33.7 4.3-10.7 10-26.7 12.8-35.5 2.8-8.8 7.1-22.8 9.5-31 2.5-8.3 8-28.5 12.1-45 5.2-20.7 9-39.3 12.5-60 2.7-16.5 5.5-34.5 6.1-40 0.6-5.5 1.5-12.7 2-16 0.5-3.3 1-9 1-12.8 0-3.7 0.9-11.2 2-16.7 1.9-9.3 2-14 2-71.5 0-57.5-0.1-62.2-2-71.5-1.1-5.5-2-13-2-16.8 0-3.7-0.5-9.4-1-12.7-0.5-3.3-1.4-10.5-2-16-0.6-5.5-2.6-19.2-4.5-30.5-1.9-11.3-5-28.2-6.9-37.5-1.9-9.3-4.9-23.1-6.6-30.5-1.7-7.4-6.4-25.2-10.5-39.5-4.1-14.3-10.1-33.9-13.4-43.5-3.3-9.6-9.8-26.7-14.4-38-4.7-11.3-11.2-26.6-14.4-34-3.3-7.4-11.7-24.9-18.7-38.8-6.9-13.8-16.9-32.7-22.2-42-5.3-9.2-14.9-25-21.2-35.2-6.3-10.2-15.6-24.4-20.7-31.5-5-7.2-11.6-16.4-14.6-20.7-3-4.2-9.9-13.4-15.4-20.5-5.5-7-15.6-19.4-22.5-27.6-6.9-8.1-15.8-18.7-19.8-23.5-4.1-4.8-18.2-19.6-31.5-33-13.3-13.4-27.8-27.3-32.2-31-4.4-3.6-11.6-9.8-16-13.7-4.4-3.9-18.1-15.2-30.4-25.1-12.3-9.8-29-22.5-37-28.1-8-5.7-19.2-13.3-24.8-17-5.6-3.8-16.6-10.9-24.5-15.9-7.9-5.1-20.4-12.7-27.8-16.9-7.4-4.3-27.8-14.9-45.2-23.6-17.5-8.8-38.2-18.6-46-22-7.9-3.4-24-9.7-35.8-14-11.8-4.4-27.6-10.1-35-12.9-7.4-2.7-20.5-7-29-9.4-8.5-2.5-22-6.1-30-8.1-8-2-25.5-6.1-39-9.1-13.5-3-27.9-6.4-32-7.4-4.1-1.1-12.5-2.4-18.5-2.9-6-0.6-15.5-2-21-3.1-6.8-1.5-16.4-2.5-30-3.1-11-0.4-22.9-1.5-26.5-2.4-5.4-1.2-16.4-1.4-66-1.4-48.1 0.1-60.6 0.3-65.5 1.5z"/>
		<path id="Path 2" class="s0" d="m1413.5 692c-11.5 1.7-27.5 4.1-35.5 5.5-8 1.4-17.8 3.4-21.8 4.5-3.9 1.1-9.8 3.3-12.9 4.9-3.2 1.6-7.8 4.7-10.3 6.8-2.5 2.2-5.9 6.6-7.7 9.9-1.7 3.2-3.9 8.8-4.7 12.4-1.4 5.8-1.6 42.4-1.6 336 0 318.6-0.1 329.6-1.9 333.5-1 2.2-3.1 5.2-4.7 6.7-1.6 1.5-9.2 6.3-16.9 10.8-7.7 4.5-24.1 14.1-36.5 21.3-12.4 7.1-24.1 14-26 15.2-1.9 1.2-9.3 5.3-16.5 9.1-7.2 3.7-15.9 8.5-19.5 10.6-4.1 2.4-7.8 3.8-10 3.8-2.1 0.1-4.1-0.6-5.1-1.7-0.9-1-2-2.7-2.5-3.8-0.5-1.2-1.1-142.7-1.4-340.5l-0.5-338.5c-4-8.5-6.9-12.7-9.1-14.8-2.1-2.1-5.9-4.5-8.4-5.4-2.9-1.1-6.1-1.4-9-1.1-2.5 0.3-8.3 2.2-13 4.3-4.7 2-15.7 7.7-24.5 12.8-8.8 5-21.4 12.4-28 16.5-6.6 4-19 12-27.5 17.7-8.5 5.6-18.2 12.9-21.5 16.2-3.3 3.3-7.4 8.6-9.2 11.9-1.8 3.2-4.2 8.6-5.5 11.9l-2.3 6c-1 667.1-1.2 701.3-2.6 704.5-0.8 1.9-3.4 5.1-5.6 7-2.3 1.9-17.1 10.9-32.9 19.9-15.9 9.1-38.4 22.1-49.9 29-11.5 6.9-29.5 17.4-40 23.3-10.5 6-20.6 11.1-22.5 11.4-1.9 0.4-4.6 0.3-5.9-0.2-1.4-0.5-3.3-2.2-4.3-3.9-1.2-2.1-2.9-10.8-5.3-28-1.9-13.8-4.1-30-5-36-0.8-6-1.5-16.8-1.5-24 0-7.2-0.7-17.5-1.5-23-0.8-5.5-1.5-15.6-1.5-22.5 0-6.9 0.7-16.8 1.5-22 0.8-5.2 1.5-16.5 1.5-25 0-8.5 0.7-20.2 1.5-26 0.8-5.8 2.2-16.1 3.1-23 0.8-6.9 3.1-21 5-31.5 1.9-10.5 5.5-27.3 8-37.5 2.5-10.2 7-26.2 10.1-35.5 3-9.3 6.3-20.8 7.3-25.5 1.9-8.1 2-14.2 2-134 0-109.4-0.2-126.1-1.5-130.5-0.8-2.7-2.5-6.5-3.8-8.3-1.2-1.8-4-4.1-6.2-5.2-2.2-1.1-5.4-2-7-2-1.6 0-5.4 1.2-8.4 2.7-3 1.6-7.2 4.8-9.4 7.3-2.2 2.5-10.5 14.4-18.5 26.5-8 12.1-19.6 30.3-25.7 40.5-6.1 10.2-15.6 27.5-21.2 38.5-5.5 11-14.7 30.1-20.3 42.5-5.6 12.4-13.1 29.9-16.5 39-3.4 9.1-9 24.4-12.4 34-3.4 9.6-8.6 26-11.6 36.5-3 10.5-7 25.8-9 34-2 8.3-5 21.3-6.6 29-1.6 7.7-4.1 20.5-5.4 28.5-1.3 8-3.3 20.8-4.4 28.5-1 7.7-2.6 19.8-3.5 27-0.8 7.2-1.8 19.3-2 27-0.3 7.7-1.1 16.9-1.8 20.5-0.8 4.4-1.2 18.1-1.3 42.5 0 25.4 0.4 38.5 1.3 44.5 0.8 4.7 1.8 15.5 2.2 24 0.5 8.5 1.4 20 2 25.5 0.6 5.5 2 16.8 3.1 25 1.1 8.3 3.1 20.8 4.5 28 1.3 7.2 3.1 16.8 4 21.5 0.8 4.7 3.4 16.4 5.6 26 2.2 9.6 6.9 27.4 10.3 39.5 3.5 12.1 10.3 33.3 15.1 47 4.7 13.8 12.2 33.3 16.6 43.5 4.4 10.2 8.8 19.8 9.8 21.5 1 1.7 4.2 5.2 7.1 7.8 3.1 2.8 7.7 5.7 10.9 6.9 4.3 1.5 7 1.9 12 1.5 5.2-0.4 8.4-1.5 16-5.4 5.2-2.6 15.8-8.5 23.5-13.1 7.7-4.6 21.2-12.5 30-17.5 8.8-5 28.1-16.2 43-25 14.9-8.8 29.2-17.1 32-18.4 2.7-1.4 9-4.9 14-7.8 5-2.9 17.1-9.9 27-15.7 9.9-5.8 22.7-13.2 28.5-16.5 5.8-3.4 19.3-11.1 30-17.3 10.7-6.2 23.5-13.6 28.5-16.5 5-2.9 19.8-11.5 33-19 13.2-7.6 29.8-17.2 37-21.3 7.2-4.2 24-13.9 37.5-21.7 13.5-7.7 30.3-17.5 37.5-21.7 7.2-4.1 22.7-13.1 34.5-19.9 11.8-6.7 29.4-16.9 39-22.5 9.6-5.6 19.5-11.2 22-12.4 2.5-1.3 9.7-5.5 16-9.4 6.3-4 16-9.6 21.5-12.6 5.5-2.9 12.9-7.1 16.5-9.3 3.6-2.2 22.7-13.3 42.5-24.7 19.8-11.4 40-23.3 45-26.4 5-3.2 11.4-7.5 14.2-9.7 2.9-2.1 7.2-6.3 9.4-9.2 2.3-2.8 4.9-6.8 5.9-8.7 1-1.9 2.5-6.3 3.4-9.8 1.5-5.6 1.6-40.7 1.3-385.9l-0.2-379.8c-4.8-10.1-8-14.7-10.1-16.8-2.2-2.1-6.4-5-9.4-6.4-4.4-2.2-7.2-2.7-14.5-2.9-5.9-0.2-16.1 0.7-30 2.6zm194.5-0.9c-3 1.1-7.1 3.2-9 4.7-1.9 1.4-4.3 3.6-5.3 4.7-1 1.1-3.3 4.9-5 8.5l-3.2 6.5c-0.5 718.9-0.4 759.7 1 765.5 0.8 3.6 3.2 9.4 5.3 12.9 2.1 3.6 6.7 9.2 10.7 12.8 3.8 3.6 10.9 8.9 15.7 11.9 4.9 3 14.8 8.6 22 12.5 7.3 3.9 19.6 10.8 27.3 15.4 7.7 4.5 23.2 13.6 34.5 20.2 11.3 6.6 26.1 15.3 33 19.3 6.9 4 21.3 12.3 32 18.3 10.7 6 25.3 14.4 32.5 18.5 7.2 4.2 24.5 14.2 38.5 22.2 14 8.1 27.3 15.8 29.5 17.2 2.2 1.4 14.1 8.3 26.5 15.3 12.4 7.1 26.5 15.3 31.5 18.3 5 3 13.7 8 19.5 11.2 5.8 3.1 18.4 10.2 28 15.7 9.6 5.5 22.9 13.3 29.5 17.3 6.6 4 25 14.7 41 23.8 15.9 9.1 36 20.6 44.5 25.7 8.5 5 21.3 12.4 28.5 16.5 7.2 4 20 11.5 28.5 16.5 8.5 5.1 20 11.6 25.5 14.5 5.5 3 18.3 10.4 28.5 16.5 10.2 6.1 25.2 15 33.5 19.7 8.2 4.8 19.7 10.9 25.5 13.8 7.8 3.8 12 5.2 16.5 5.6 4.8 0.5 7.2 0.1 12-1.7 4.3-1.6 7.6-3.8 11.5-7.8 3.1-3.1 7-8.3 8.7-11.6 1.8-3.3 5-10.7 7.2-16.5 2.1-5.8 5.6-14.3 7.6-19 2-4.7 6.8-17.7 10.6-29 3.9-11.3 9.9-30.4 13.3-42.5 3.5-12.1 8.9-33.3 11.9-47 3-13.8 6.6-31.5 8.1-39.5 1.4-8 3.5-21 4.5-29 1.1-8 2.5-19 3.1-24.5 0.7-5.5 1.5-17.9 2-27.5 0.4-9.6 1.4-21.3 2.2-26 0.9-5.9 1.3-18.8 1.3-42 0-23.2-0.4-35.8-1.3-41-0.7-4.1-1.7-15.6-2.2-25.5-0.5-11.3-1.5-20.2-2.5-24-1-3.3-3.3-9.2-5.2-13-2.5-4.8-6-9.4-11.2-14.6-4.4-4.3-10.8-9.4-15.1-11.9-4.1-2.4-13.3-7.8-20.5-12.1-7.2-4.2-23.6-13.7-36.5-21.1-12.9-7.4-28.2-16.4-34-19.9-7.1-4.4-11-7.4-12.2-9.7-1.6-2.9-1.7-3.5-0.3-6.7 1-2.4 3.3-4.6 7.2-7 3.2-2 15.5-9.3 27.3-16.3 11.8-7 25.8-15.2 31-18.2 5.2-3 11.4-7.5 13.8-10 2.4-2.5 5.7-7.2 7.4-10.5 1.9-3.9 3.1-8.3 3.5-12.5 0.4-4.6 0.1-8.7-1.2-14-0.9-4.1-3.7-12.5-6-18.5-2.3-6-7.1-17.5-10.5-25.5-3.4-8-9.4-21.3-13.3-29.5-3.9-8.3-11.2-22.9-16.2-32.5-5.1-9.6-13.3-24.3-18.2-32.5-5-8.3-12.5-20.6-16.8-27.5-4.2-6.9-12.1-18.6-17.4-26-5.4-7.4-12.8-17.8-16.6-23-3.7-5.2-9.8-13.1-13.5-17.5-3.6-4.4-10.6-13-15.5-19-4.8-6-11.6-13.9-15-17.5-3.4-3.6-9.6-10.5-13.8-15.5-4.1-5-17.1-18.5-28.9-30.1-12.2-12.1-30.5-28.8-42.8-39-11.8-9.9-27.1-22.2-33.8-27.4-6.8-5.2-18.1-13.7-25-18.8-7-5.1-17.4-12.3-23.2-16.1-5.8-3.8-15.9-10.2-22.5-14.3-6.6-4.1-20.8-12.4-31.5-18.5-10.7-6.1-27.2-14.9-36.5-19.6-9.3-4.7-24.9-12-34.5-16.2-9.6-4.2-24.5-10.5-33-14-8.5-3.4-27.9-10.4-43-15.4-18.1-6.1-39.1-12.1-61.5-17.7-18.7-4.7-39.8-9.6-47-10.9-7.2-1.3-19.3-3.3-27-4.4-7.7-1.1-19.8-2.7-27-3.5-7.2-0.9-15.3-1.6-18-1.6-2.8 0.1-7.5 1-10.5 2.1zm-89.5 911.3c-2.2 0.7-6.9 2.8-10.5 4.6-3.6 1.8-14.8 8-25 13.8-10.2 5.8-23.5 13.5-29.5 17.2-6 3.7-15.7 9.2-21.5 12.4-5.8 3.2-16.8 9.4-24.5 13.9-7.7 4.4-21.4 12.4-30.5 17.7-9.1 5.4-25 14.6-35.5 20.5-10.5 6-21.7 12.5-25 14.5-3.3 2-20.8 12.2-39 22.5-18.2 10.4-36.8 21.2-41.5 24-4.7 2.8-20 11.7-34 19.7-14 8-34 19.4-44.5 25.3-10.5 6-26.4 15.3-35.5 20.8-9.1 5.5-21 12.4-26.5 15.4-5.5 3-17 9.6-25.5 14.6-8.5 4.9-21.8 12.7-29.5 17.3-7.7 4.5-18.7 10.8-24.5 13.9-5.8 3.2-16.4 9.3-23.5 13.5-7.1 4.3-22.9 13.4-35 20.3-12.1 6.8-28.5 16.4-36.5 21.2-8 4.8-19.5 11.5-25.5 14.8-6 3.3-16.8 9.4-23.9 13.6-7 4.2-15.1 9.7-18 12.2-2.8 2.5-6.3 6.8-7.8 9.5-1.5 2.7-3.2 7.2-3.8 9.9-0.8 4-0.7 6.2 0.5 11 0.9 3.3 3 8.5 4.7 11.5 1.6 3 6.2 9.8 10.1 15 3.9 5.2 10.7 13.8 15.2 19 4.5 5.2 12.1 14.4 17 20.5 4.8 6.1 22.4 24.6 38.9 41.3 16.6 16.7 33.7 33.3 38.1 37 4.4 3.6 11.1 9.6 15 13.2 3.9 3.6 13 11.2 20.3 17 7.3 5.8 17.9 14 23.5 18.3 5.6 4.3 14.7 10.8 20.2 14.5 5.5 3.7 14.7 10 20.5 14 5.8 4.1 19.7 12.9 31 19.7 11.3 6.7 35.5 19.8 53.7 28.9 18.3 9.1 41.3 20 51 24.2 9.8 4.2 26.6 10.9 37.3 14.9 10.7 4 22.2 8 25.5 8.9 3.3 0.8 13 3.8 21.5 6.6 8.5 2.8 25.4 7.5 37.5 10.5 12.1 3 31.5 7.3 43 9.5 11.5 2.2 26 4.9 32 6 6 1 17.1 2.6 24.5 3.4 7.4 0.9 18.2 2 24 2.7 5.8 0.6 21.5 1.4 35 1.9 13.5 0.4 27.7 1.3 31.5 2 3.8 0.7 12.6 1.2 19.5 1.2 6.9 0 15.4-0.5 19-1.2 3.6-0.7 17.1-1.6 30-2 12.9-0.5 28.2-1.3 34-1.9 5.8-0.6 16.1-1.8 23-2.7 6.9-0.8 21.5-3.1 32.5-4.9 11-1.9 27.9-5 37.5-7 9.6-2 23.8-5.2 31.5-7.1 7.7-1.9 19.8-5.1 27-7.1 7.2-1.9 21.1-6.4 31-9.9 9.9-3.6 28.6-10.4 41.5-15.2 19.7-7.3 30.6-12.2 67-30.4 29-14.5 49.5-25.4 61.5-32.8 9.9-6.2 23.8-15 31-19.7 7.2-4.7 20.2-13.8 29-20.1 8.8-6.3 19.6-14.3 24-17.8 4.4-3.5 12.6-10.3 18.2-15.1 5.6-4.9 15.5-13.4 22-19 6.5-5.5 24.9-23.3 40.8-39.5 16-16.1 31.9-32.7 35.3-36.8 3.4-4.1 9.8-11.8 14.2-17 4.5-5.2 10.7-12.7 13.9-16.5 3.2-3.8 8-10.2 10.8-14 2.8-3.8 6.7-9.9 8.6-13.5 1.9-3.6 4-8.7 4.6-11.5 0.5-2.7 0.8-6.8 0.4-9-0.3-2.2-2-6.7-3.7-9.9-1.8-3.4-5.5-8.1-8.7-11-3.1-2.8-10.5-7.8-16.5-11.1-6-3.2-15-8.3-19.9-11.3-4.9-3-18.9-11.1-31-18-12.1-6.9-27.8-16-35-20.2-7.2-4.3-19.8-11.6-28-16.2-8.3-4.7-20.8-11.8-28-16-7.2-4.1-16.4-9.6-20.5-12.3-4.1-2.7-12.7-7.5-19-10.8-6.3-3.3-19.2-10.5-28.5-16-9.3-5.5-23.3-13.7-31-18.2-7.7-4.6-22.3-13.1-32.5-19.1-10.2-5.9-24.6-14.1-32-18.2-7.4-4.1-17.1-9.4-21.5-11.7-4.4-2.4-10.7-5.1-14-6-4.4-1.3-8.3-1.6-14.5-1.3-6.4 0.4-10.5 1.3-16.5 3.6-4.4 1.8-14.5 7-22.5 11.8-8 4.7-22.8 13.3-33 19.2-10.2 5.8-20 11.1-21.8 11.9-1.7 0.7-4.4 1.3-6 1.3-1.6 0-3.7-1-5.2-2.6-1.7-1.7-2.7-4.3-3.2-7.7-0.3-2.9-0.7-23.4-0.7-45.7-0.1-33.4-0.4-41.6-1.7-46.5-0.8-3.3-3.2-9.1-5.2-13-2-3.8-5.7-9-8.2-11.5-2.5-2.6-10.6-8.2-18-12.7-7.4-4.4-20.3-11.7-28.5-16.3-8.3-4.6-23.5-13.5-34-19.8-10.5-6.3-21.7-12.8-25-14.5-3.3-1.6-15.2-8.5-26.5-15.2-11.3-6.7-22.8-13.3-25.5-14.7-2.8-1.4-7.5-3.3-10.5-4.2-3.3-1-8.9-1.6-14-1.5-4.7 0-10.3 0.6-12.5 1.3z"/>
		<path id="Path 3" class="s1" d="m1749.5 880.1c-1.1 0.5-2.7 2-3.5 3.2-1.3 1.9-1.5 12.9-1.8 80.2-0.2 52.3 0 79.7 0.7 83.2 0.8 3.7 2.1 6.3 4.3 8.6 1.8 1.9 8.9 6.7 15.8 10.7 6.9 4 20.4 11.9 30 17.5 9.6 5.7 19.8 11.4 22.5 12.8 2.7 1.3 9 4.9 14 7.9 5 3 21.2 12.4 36 21 14.8 8.5 36 20.6 47 26.8 11 6.3 26.3 15.2 34 19.8 7.7 4.7 24.3 14.4 37 21.7 12.7 7.2 28.8 16.5 36 20.7 7.2 4.2 19.1 11 26.5 15.1 7.4 4.1 15.4 8 17.8 8.6 2.8 0.8 5.6 0.8 8.4 0.1 2.4-0.5 8.1-3.2 12.8-5.9 4.7-2.7 14.2-8.2 21.2-12.3 7-4 14.7-8.8 17.2-10.6 2.5-1.7 5.3-4.7 6.2-6.5 1.1-2.1 1.4-4.4 1-6.7-0.3-1.9-5.6-12-11.9-22.5-6.2-10.5-15.1-24.6-19.7-31.5-4.6-6.9-13-18.6-18.6-26-5.6-7.4-14.9-19-20.6-25.7-5.6-6.7-15.5-18.1-21.9-25.5-6.4-7.3-16.3-17.8-22-23.3-5.8-5.5-16.7-15.6-24.4-22.5-7.7-6.9-19-16.6-25-21.6-6-5-16.4-13.1-23-18-6.6-4.9-17.2-12.6-23.5-17-6.3-4.5-16.9-11.5-23.5-15.7-6.6-4.1-18.5-11.2-26.5-15.6-8-4.5-23.5-12.7-34.5-18.2-11-5.6-30.3-14.3-43-19.5-12.7-5.1-26.5-10.4-30.8-11.8-4.2-1.4-8.7-2.6-10-2.5-1.2 0-3.1 0.5-4.2 1zm-0.2 363.2c-1.2 0.7-2.9 3.1-3.8 5.2-1.4 3.6-1.5 11.8-1.3 79 0.3 74.7 0.3 75 2.5 79.5 1.5 3.1 3.8 5.6 7.5 8.1 2.9 2 10.3 6.4 16.3 9.9 6 3.4 24.7 14.1 41.5 23.8 16.8 9.6 38.2 22.1 47.5 27.7 9.3 5.6 21 12.3 26 14.7 5 2.5 14.4 7.8 21 11.8 6.6 4 21.7 12.8 33.5 19.5 11.8 6.7 28.9 16.7 38 22.2 9.1 5.5 21 12.4 26.5 15.3 5.5 3 20.8 11.7 34 19.3 13.2 7.7 34.3 20 47 27.2 12.7 7.3 30.7 17.7 40 23.2 9.3 5.5 27.3 15.8 40 23 12.7 7.2 24.5 13.8 26.3 14.7 1.7 0.9 4.9 1.6 6.9 1.6 2.7 0 4.4-0.6 5.9-2.2 1.1-1.3 2.5-3.4 3.1-4.8 0.6-1.4 1.8-6.1 2.6-10.5 0.9-4.4 2.5-15.2 3.7-24 1.1-8.8 2.7-20.7 3.5-26.5 0.8-5.8 1.5-16 1.5-22.8 0-6.7 0.7-17.3 1.6-23.5 1-7 1.4-15.9 1.2-23.7-0.3-11.4-0.5-12.9-2.9-17-1.5-2.5-4.2-5.7-6-7.1-1.9-1.4-9.2-6-16.4-10.2-7.2-4.1-18.8-10.9-26-15-7.2-4.1-20.9-12.1-30.5-17.7-9.6-5.6-23.3-13.6-30.5-17.7-7.2-4.2-17.7-10.3-23.5-13.6-5.8-3.3-18.4-10.6-28-16.2-9.6-5.6-21.5-12.5-26.5-15.2-5-2.7-13.5-7.7-19-11-5.5-3.3-17.9-10.4-27.5-15.9-9.6-5.4-25.8-14.8-36-20.9-10.2-6.1-22.5-13.3-27.5-16-5-2.6-14.8-8.3-22-12.5-7.2-4.3-27.6-16.1-45.5-26.2-17.9-10.2-35.4-20.3-39-22.5-3.6-2.2-17.5-10.3-31-18-13.5-7.7-26.1-14.5-28-15.1-1.9-0.7-3.7-1.2-4-1.2-0.3 0-1.5 0.6-2.7 1.3zm-225.3 536.3c-2.5 0.9-12.4 6.2-22 11.7-9.6 5.5-21.3 12.4-26 15.2-4.7 2.8-12.5 7.3-17.5 10-5 2.6-16.4 9.2-25.5 14.5-9.1 5.3-25 14.6-35.5 20.5-10.5 5.9-20.6 11.8-22.5 13-1.9 1.2-11.2 6.6-20.5 12-9.3 5.4-24 13.7-32.5 18.5-8.5 4.8-19.8 11.3-25 14.5-5.2 3.2-19.4 11.4-31.5 18.3-12.1 6.9-24.9 14.3-28.5 16.5-3.6 2.2-16.2 9.5-28 16.2-11.8 6.7-27.8 15.8-35.5 20.2-7.7 4.5-17.6 10.3-22 13-4.4 2.7-13.8 8.1-21 12-7.2 3.9-20.7 11.7-30 17.3-9.3 5.6-18.5 11.6-20.3 13.3-2.4 2.4-3.2 4.1-3.3 6.7 0 2.7 1 4.6 4.3 8.4 2.4 2.7 8.6 8.3 13.8 12.5 5.2 4.2 18.3 14.2 29 22.3 10.7 8 24.7 17.8 31 21.8 6.3 4 17.8 11.1 25.5 15.8 7.7 4.7 16 9.2 18.5 10 3.4 1 5.5 1 8.5 0.3 2.2-0.6 22.2-11.5 44.5-24.2 22.3-12.8 45-25.8 50.5-28.9 5.5-3.1 14.3-8.2 19.5-11.3 5.2-3.1 15.3-9.2 22.5-13.5 7.2-4.4 16.8-9.9 21.5-12.2 4.7-2.4 15.5-8.4 24-13.5 8.5-5 24.3-14.3 35-20.5 10.7-6.2 28.5-16.6 39.5-23 11-6.5 22.3-12.9 25-14.3 2.8-1.4 17.8-9.9 33.5-19 15.7-9.1 31.9-18.7 36-21.4 5.5-3.5 8.2-6 10-9.3l2.5-4.5v-115.1c-4.4-6.7-8.3-10.2-12.2-12.8-3.8-2.4-10-6-13.8-8-4.1-2.1-9.1-3.8-12-4.1-3.3-0.3-6.5 0-9.5 1.1zm307 177.7c-1.4 0.6-9.5 5.2-18 10.3-8.5 5-18.4 10.6-22 12.4-3.6 1.8-13.5 7.4-22 12.5-8.5 5-22.5 13.1-31 18-8.5 4.8-24.7 14.3-36 21-11.3 6.7-29 17.1-39.5 23-10.5 6-23 13.3-28 16.3-5 3.1-15.1 8.7-22.5 12.7-7.4 3.9-23.4 13-35.5 20.2-12.1 7.2-30.5 17.9-41 23.9-10.5 5.9-24.2 13.9-30.5 17.7-6.3 3.8-14.4 8.4-18 10.2-3.6 1.8-11.2 6.2-17 9.7-5.8 3.6-17.9 10.7-27 15.8-9.1 5.1-18.3 10.6-20.5 12-2.2 1.5-5.3 4.1-6.8 5.6-1.5 1.6-2.8 3.9-2.7 5.2 0 1.2 1.2 3.1 2.8 4.2 1.5 1.1 5.6 2.7 9.2 3.4 3.6 0.8 12.8 2.1 20.5 3 7.7 1 19.2 2.3 25.5 3.1 8.7 1.1 23.6 1.5 60.5 1.5 36.8 0 51.9-0.4 60.5-1.4 6.3-0.8 17.6-2.2 25-3.1 7.4-0.9 21.8-3 32-4.7 10.2-1.6 31.8-6.3 48-10.4 18.4-4.6 39.5-10.7 56-16.2 14.6-4.9 31.1-10.8 36.8-13.1 5.6-2.2 13.5-5.7 17.5-7.7 3.9-2 12.4-5.9 18.7-8.6 6.3-2.7 17.3-8.1 24.5-12 7.2-3.9 15.9-8.9 19.5-11.1 3.6-2.2 10.5-6.2 15.5-9 5-2.7 19.6-12.1 32.5-20.9 12.9-8.7 29.6-20.5 37-26.3 7.4-5.8 17.1-13.7 21.4-17.7 4.4-4 8.5-8.6 9.1-10.3 0.7-1.7 1-4.1 0.7-5.5-0.4-1.4-2-3.8-3.7-5.5-1.7-1.7-6-4.5-9.5-6.4-3.6-1.8-14.6-8.1-24.5-13.9-9.9-5.8-25.4-14.9-34.5-20.2-9.1-5.4-21.5-12.4-27.5-15.7-6-3.3-14.8-8.4-19.5-11.3-4.7-2.9-11.7-6.8-15.5-8.7-5.4-2.6-8.2-3.3-12.5-3.2-3 0-6.6 0.5-8 1.2z"/>
	</g>
</svg>